<svg version="1.2" xmlns="http://www.w3.org/2000/svg" viewBox="0 0 1280 720" width="1280" height="720">
	<title>New Project</title>
	<style>
		.s0 { fill: #ffffff } 
	</style>
	<path id="Layer" class="s0" d="m16.1 459.3c-2.6 0-5.1-1.1-6.9-3.1-3.3-3.8-2.9-9.5 0.9-12.8l208.4-181.2c3.4-2.9 8.4-2.9 11.9 0l48.4 42.1v-35.2c0-5 4-9.1 9-9.1h54.4c5 0 9 4.1 9 9.1v98.3l87.5 76c3.8 3.3 4.2 9 0.9 12.8-3.3 3.8-9 4.2-12.8 0.9l-90.6-78.8c-1.9-1.7-3.1-4.2-3.1-6.8v-93.4h-36.2v46.1c0 3.5-2.1 6.7-5.3 8.2-3.2 1.5-7 1-9.7-1.4l-57.5-49.9-202.4 176c-1.7 1.5-3.8 2.2-5.9 2.2z"/>
	<path id="Layer" fill-rule="evenodd" class="s0" d="m609.7 332.7c12.7 0 23.9 8.2 23.9 28.4v32.1h-18.1v-31.5c0-7.6-3.2-13.3-11.6-13.3-7 0-11.7 6.2-13 11.7v33.1h-18.1v-31.5c0-7.6-4.7-13.3-11.6-13.3-7.5 0-11.9 5-13.1 11.7v33.1h-18.1v-59.6h18.1v10.9c0.2-2.8 6.1-11.8 17.8-11.8 8.6 0 16.8 4.5 21.7 12.9 1.4-3.2 8.3-12.9 22.1-12.9zm77.8 0.9h18.1v59.6h-18.1v-6c-0.8 2.1-6.2 7.1-15.4 7.1-13.6 0-29.3-9.7-29.3-31 0-20.6 15.7-30.8 29.3-30.8 9.2 0 14.6 5.3 15.4 6.6zm-12.7 44.8c7.4 0 13.5-5.2 13.5-15.1 0-9.7-6.1-14.8-13.5-14.8-7.8 0-14.5 5.3-14.5 14.8 0 9.8 6.7 15.1 14.5 15.1zm75.9-45.9c13.7 0 29.4 10.2 29.4 30.8 0 21.3-15.7 31-29.4 31-9.1 0-14.5-5-15.3-7.1v27.8h-18.1v-81.4h18.1v5.5c0.8-1.3 6.2-6.6 15.3-6.6zm-2.6 45.9c7.8 0 14.4-5.3 14.4-15.1 0-9.5-6.6-14.8-14.4-14.8-7.4 0-13.5 5.1-13.5 14.8 0 9.9 6.1 15.1 13.5 15.1zm41.8-66.3h18.1v81.1h-18.1zm59.4 20.4c13.5 0 32.4 10.2 28.7 37.1h-41.6c2 6.2 7.4 9.4 14.6 9.4 7.4 0 9.7-1.6 13.8-3.3l10 9.6c-5.3 5.2-12.4 9-24.5 9-14.7 0-32.4-10.2-32.4-30.8 0-20.8 17.9-31 31.4-31zm0 15.5c-5.1 0-10.4 2.9-12.7 8.9h25.3c-1.8-6-7.4-8.9-12.6-8.9z"/>
	<path id="Layer" fill-rule="evenodd" class="s0" d="m933.5 327.2c14.8 0 31.9 11.1 31.9 33.4 0 23.2-17.1 33.8-31.9 33.8-10 0-15.8-5.5-16.7-7.8v6.5h-19.7v-88.1h19.7v29.3c0.9-1.4 6.7-7.1 16.7-7.1zm-2.9 49.8c8.5 0 15.7-5.7 15.7-16.4 0-10.4-7.2-16.1-15.7-16.1-8.1 0-14.7 5.6-14.7 16.1 0 10.8 6.6 16.4 14.7 16.4zm69.2 17.1c-12.1 0-24.4-8.1-24.4-28.7v-37.1h19.7v35.8c0 9.8 3.3 12.9 9.6 12.9 8.8 0 13.9-8.6 15.2-12.3v-36.4h19.7v64.8h-19.7v-11.2c-1.3 3.1-7.9 12.2-20.1 12.2zm52.5-89.1h19.7v16.6h-19.7zm0 23.3h19.7v64.8h-19.7zm32.4-23.3h19.7v88.1h-19.7zm79 0h19.7v88.1h-19.7v-6.5c-0.9 2.3-6.7 7.7-16.7 7.7-14.8 0-31.9-10.5-31.9-33.7 0-22.3 17.1-33.4 31.9-33.4 10 0 15.8 5.7 16.7 7.1zm-13.8 72c8.1 0 14.7-5.6 14.7-16.4 0-10.5-6.6-16.1-14.7-16.1-8.5 0-15.7 5.7-15.7 16.1 0 10.7 7.2 16.4 15.7 16.4zm77-28.3c-1.8-4.5-4.4-6-7.2-6-2.7 0-5.3 1.5-5.3 4 0 2.4 1.5 3.8 4.4 4.8l8.2 2.8c9.2 3.4 18.6 6.8 18.6 19.7 0 13.1-13.1 20.6-26.6 20.6-12.1 0-23.4-7.1-26.1-18.5l15.4-4.8c1.6 3.6 4.5 7.7 10.7 7.7 4.3 0 7-2.7 7-5.2 0-1.3-1-2.9-4.1-4.1l-7.6-2.8c-13-4.7-19.1-11.3-19.1-20.5 0-12.1 11.2-19.2 23.6-19.2 12.6 0 20.9 6.8 24.7 17.2z"/>
</svg>