<svg version="1.2" xmlns="http://www.w3.org/2000/svg" viewBox="0 0 3087 3263" width="3087" height="3263">
	<title>White logo - no background-svg</title>
	<style>
		.s0 { fill: #ffffff } 
	</style>
	<g id="Layer">
		<g id="SvgjsG10920">
			<path id="Layer" class="s0" d="m168.7 2288c-16.7 0-33.2-7.1-45.1-20.6-21.6-24.9-19-62.5 5.9-84.4l1374.6-1195.3c22.5-19.6 56-19.6 78.4 0l319.4 277.7v-232.5c0-33 26.9-59.8 59.8-59.8h358.6c32.8 0 59.7 26.9 59.7 59.8v648.4l577.1 501.8c24.9 21.8 27.5 59.6 5.9 84.5-21.6 25-59.5 27.4-84.4 5.9l-597.7-519.7c-12.9-11.5-20.5-27.8-20.5-45.1v-616.1h-239.1v303.9c0 23.4-13.6 44.6-34.9 54.4-21.1 9.7-46.2 6.1-64-9.3l-379.2-329.6-1335.4 1161.3c-11.2 9.9-25.1 14.7-39.1 14.7z"/>
		</g>
		<g id="SvgjsG10921">
		</g>
		<g id="SvgjsG10922">
		</g>
	</g>
</svg>