<svg version="1.2" xmlns="http://www.w3.org/2000/svg" viewBox="0 0 1280 720" width="1280" height="720">
	<title>New Project</title>
	<style>
		.s0 { fill: #ffffff } 
	</style>
	<g id="Layer">
		<g id="SvgjsG10920">
			<path id="Layer" class="s0" d="m37.1 518.5c-3.7 0-7.3-1.5-9.9-4.5-4.7-5.4-4.2-13.7 1.3-18.5l301.6-262.3c4.9-4.3 12.3-4.3 17.2 0l70.1 60.9v-51c0-7.2 5.9-13.1 13.1-13.1h78.7c7.2 0 13.1 5.9 13.1 13.1v142.3l126.6 110.1c5.5 4.8 6.1 13.1 1.3 18.6-4.7 5.4-13 6-18.5 1.3l-131.1-114.1c-2.9-2.5-4.5-6.1-4.5-9.9v-135.1h-52.5v66.6c0 5.2-3 9.8-7.7 12-4.6 2.1-10.1 1.3-14-2.1l-83.2-72.3-293 254.8c-2.5 2.2-5.5 3.2-8.6 3.2z"/>
		</g>
		<g id="SvgjsG10921">
			<path id="Layer" fill-rule="evenodd" class="s0" d="m832.2 229.5c19.5 0 36.8 12.7 36.8 43.6v49.2h-27.8v-48.3c0-11.6-4.9-20.4-17.7-20.4-10.8 0-18 9.5-20.1 17.9v50.8h-27.7v-48.3c0-11.6-7.2-20.4-17.8-20.4-11.4 0-18.3 7.8-20 17.9v50.8h-27.8v-91.3h27.8v16.6c0.3-4.2 9.3-18.1 27.2-18.1 13.2 0 25.9 7.1 33.4 19.9 2.1-4.9 12.7-19.9 33.7-19.9zm119.4 1.5h27.7v91.3h-27.7v-9.1c-1.3 3.2-9.5 10.9-23.6 10.9-20.9 0-45-15-45-47.6 0-31.5 24.1-47.1 45-47.1 14.1 0 22.3 8.1 23.6 10zm-19.5 68.7c11.4 0 20.7-7.9 20.7-23.2 0-14.8-9.3-22.7-20.7-22.7-12 0-22.2 8.1-22.2 22.7 0 15.1 10.2 23.2 22.2 23.2zm116.5-70.3c20.9 0 44.9 15.6 44.9 47.1 0 32.7-24 47.6-44.9 47.6-14.1 0-22.4-7.7-23.6-10.9v42.5h-27.8v-124.7h27.8v8.4c1.2-1.9 9.5-10 23.6-10zm-4.1 70.3c12 0 22.2-8.1 22.2-23.2 0-14.6-10.2-22.7-22.2-22.7-11.4 0-20.7 7.9-20.7 22.7 0 15.3 9.3 23.2 20.7 23.2zm64.1-101.6h27.8v124.3h-27.8zm91.1 31.2c20.7 0 49.7 15.7 43.9 57h-63.8c3.2 9.5 11.4 14.4 22.5 14.4 11.2 0 14.8-2.5 21.1-5.1l15.3 14.7c-8.1 7.9-19 13.7-37.5 13.7-22.6 0-49.7-15.6-49.7-47 0-32 27.4-47.7 48.2-47.7zm0 23.8c-7.9 0-16 4.5-19.5 13.7h38.8c-2.8-9.2-11.4-13.7-19.3-13.7z"/>
		</g>
		<g id="SvgjsG10922">
			<path id="Layer" fill-rule="evenodd" class="s0" d="m765.9 419.1c22.8 0 48.9 17 48.9 51.2 0 35.5-26.1 51.8-48.9 51.8-15.3 0-24.3-8.4-25.6-11.9v10h-30.2v-135.1h30.2v44.9c1.3-2.1 10.3-10.9 25.6-10.9zm-4.4 76.4c13 0 24.1-8.8 24.1-25.2 0-15.9-11.1-24.7-24.1-24.7-12.4 0-22.5 8.6-22.5 24.7 0 16.6 10.1 25.2 22.5 25.2zm106.1 26.2c-18.6 0-37.5-12.4-37.5-44v-56.9h30.2v54.8c0 15.1 5.2 19.9 14.7 19.9 13.6 0 21.4-13.2 23.3-18.9v-55.8h30.2v99.4h-30.2v-17.2c-1.9 4.7-12 18.7-30.7 18.7zm80.4-136.6h30.2v25.4h-30.2zm0 35.7h30.2v99.4h-30.2zm49.7-35.8h30.2v135.1h-30.2zm121.1 0h30.2v135.1h-30.2v-9.9c-1.3 3.4-10.3 11.8-25.6 11.8-22.7 0-48.9-16.2-48.9-51.8 0-34.2 26.2-51.2 48.9-51.2 15.3 0 24.3 8.8 25.6 10.9zm-21.2 110.5c12.4 0 22.6-8.6 22.6-25.3 0-16-10.2-24.6-22.6-24.6-13 0-24.1 8.8-24.1 24.6 0 16.5 11.1 25.3 24.1 25.3zm118.1-43.4c-2.7-6.9-6.7-9.2-11.1-9.2-4 0-8 2.3-8 6.1 0 3.7 2.3 5.8 6.7 7.3l12.6 4.4c14.1 5.1 28.4 10.3 28.4 30.2 0 20-20 31.5-40.6 31.5-18.6 0-36-10.9-40.2-28.3l23.7-7.4c2.5 5.5 6.9 11.8 16.5 11.8 6.4 0 10.7-4.2 10.7-8 0-1.9-1.6-4.4-6.4-6.3l-11.6-4.2c-19.9-7.3-29.2-17.4-29.2-31.5 0-18.6 17.2-29.5 36.1-29.5 19.3 0 32.1 10.5 37.8 26.4z"/>
		</g>
	</g>
</svg>