<svg version="1.2" xmlns="http://www.w3.org/2000/svg" viewBox="0 0 1640 664" width="1640" height="664">
	<title>New Project</title>
	<style>
		.s0 { fill: #ffffff } 
	</style>
	<g id="Layer">
		<g id="SvgjsG10920">
			<path id="Layer" class="s0" d="m26.4 542.1c-4.9 0-9.7-2-13.1-6-6.3-7.2-5.6-18.2 1.7-24.6l401.1-348.8c6.5-5.7 16.3-5.7 22.9 0l93.2 81v-67.8c0-9.6 7.8-17.4 17.4-17.4h104.6c9.6 0 17.5 7.8 17.5 17.4v189.2l168.4 146.4c7.2 6.4 8 17.4 1.7 24.7-6.3 7.3-17.4 8-24.6 1.7l-174.4-151.6c-3.8-3.4-6-8.1-6-13.2v-179.8h-69.8v88.7c0 6.8-4 13-10.2 15.9-6.1 2.8-13.5 1.8-18.7-2.7l-110.6-96.2-389.7 338.8c-3.2 2.9-7.3 4.3-11.4 4.3z"/>
		</g>
		<g id="SvgjsG10921">
			<path id="Layer" fill-rule="evenodd" class="s0" d="m1083.9 157.8c25.9 0 48.8 16.9 48.8 58v65.4h-36.9v-64.3c0-15.4-6.6-27.1-23.6-27.1-14.3 0-23.9 12.7-26.7 23.9v67.5h-36.9v-64.3c0-15.4-9.6-27.1-23.6-27.1-15.2 0-24.3 10.3-26.6 23.9v67.5h-37v-121.5h37v22.2c0.4-5.6 12.4-24.1 36.2-24.1 17.5 0 34.3 9.4 44.4 26.4 2.8-6.5 16.8-26.4 44.9-26.4zm158.6 1.9h36.9v121.5h-36.9v-12.1c-1.6 4.2-12.6 14.4-31.3 14.4-27.8 0-59.8-19.8-59.8-63.3 0-41.8 32-62.6 59.8-62.6 18.7 0 29.7 10.7 31.3 13.3zm-25.9 91.4c15.2 0 27.6-10.5 27.6-30.9 0-19.6-12.4-30.1-27.6-30.1-15.9 0-29.5 10.7-29.5 30.1 0 20.1 13.6 30.9 29.5 30.9zm154.9-93.5c27.8 0 59.8 20.8 59.8 62.6 0 43.5-32 63.4-59.8 63.4-18.7 0-29.7-10.3-31.3-14.5v56.5h-36.9v-165.9h36.9v11.2c1.6-2.5 12.6-13.3 31.3-13.3zm-5.4 93.5c15.9 0 29.5-10.8 29.5-30.9 0-19.4-13.6-30.1-29.5-30.1-15.1 0-27.5 10.5-27.5 30.1 0 20.4 12.4 30.9 27.5 30.9zm85.3-135.1h37v165.2h-37zm121.1 41.6c27.6 0 66.1 20.8 58.4 75.7h-84.8c4.2 12.7 15.2 19.2 29.9 19.2 14.9 0 19.6-3.3 28-6.8l20.4 19.6c-10.8 10.6-25.3 18.3-49.8 18.3-30.2 0-66.2-20.8-66.2-62.7 0-42.5 36.5-63.3 64.1-63.3zm0 31.6c-10.5 0-21.3 6-26 18.2h51.7c-3.8-12.2-15.2-18.2-25.7-18.2z"/>
		</g>
		<g id="SvgjsG10922">
			<path id="Layer" fill-rule="evenodd" class="s0" d="m995.6 409.9c30.3 0 65.1 22.6 65.1 68.1 0 47.2-34.8 68.8-65.1 68.8-20.3 0-32.2-11.1-34-15.7v13.2h-40.2v-179.6h40.2v59.7c1.8-2.8 13.7-14.5 34-14.5zm-5.8 101.6c17.3 0 32-11.7 32-33.5 0-21.1-14.7-32.8-32-32.8-16.5 0-30 11.4-30 32.8 0 22.1 13.5 33.5 30 33.5zm141 34.8c-24.6 0-49.8-16.5-49.8-58.4v-75.7h40.2v72.9c0 20.1 6.8 26.4 19.5 26.4 18.1 0 28.5-17.5 31-25.1v-74.2h40.2v132.1h-40.2v-22.9c-2.5 6.4-16 24.9-40.9 24.9zm107-181.6h40.1v33.8h-40.1zm0 47.5h40.1v132.1h-40.1zm66.1-47.5h40.1v179.6h-40.1zm161.1 0h40.1v179.7h-40.1v-13.2c-1.8 4.5-13.8 15.7-34.1 15.7-30.2 0-65-21.6-65-68.8 0-45.5 34.8-68.1 65-68.1 20.3 0 32.3 11.6 34.1 14.4zm-28.2 146.9c16.5 0 29.9-11.4 29.9-33.5 0-21.4-13.4-32.8-29.9-32.8-17.3 0-32.1 11.7-32.1 32.8 0 21.8 14.8 33.5 32.1 33.5zm157-57.7c-3.6-9.1-8.9-12.2-14.8-12.2-5.3 0-10.6 3.1-10.6 8.2 0 4.8 3 7.6 8.9 9.6l16.7 5.9c18.8 6.8 37.9 13.7 37.9 40.1 0 26.7-26.7 41.9-54.1 41.9-24.7 0-47.8-14.5-53.4-37.6l31.5-9.9c3.3 7.4 9.2 15.8 21.9 15.8 8.6 0 14.2-5.6 14.2-10.7 0-2.5-2-5.8-8.4-8.4l-15.5-5.6c-26.4-9.6-38.9-23.1-38.9-41.9 0-24.7 22.9-39.1 48.1-39.1 25.6 0 42.7 13.9 50.3 35z"/>
		</g>
	</g>
</svg>