<svg xmlns:inkscape="http://www.inkscape.org/namespaces/inkscape" xmlns:sodipodi="http://sodipodi.sourceforge.net/DTD/sodipodi-0.dtd" xmlns="http://www.w3.org/2000/svg" xmlns:svg="http://www.w3.org/2000/svg" xmlns:rdf="http://www.w3.org/1999/02/22-rdf-syntax-ns#" xmlns:cc="http://creativecommons.org/ns#" xmlns:dc="http://purl.org/dc/elements/1.1/" viewBox="0 0 16.933333 21.1666675" version="1.1" x="0px" y="0px"><g><path style="color:#000000;paint-order:fill markers stroke;" d="m 8.4656292,2.3870643 c -1.2517305,0 -2.2691143,1.026858 -2.2691143,2.283063 0,0.816062 0.429686,1.534554 1.0738379,1.937866 -1.3347462,0.425307 -2.3838164,1.545164 -2.6835576,2.98018 a 0.26458399,0.26458399 0 0 0 0.2051553,0.312642 0.26458399,0.26458399 0 0 0 0.3126422,-0.205155 c 0.3345683,-1.601751 1.7351163,-2.744018 3.3610365,-2.744018 1.6259918,0 3.0291268,1.142174 3.3636188,2.744018 a 0.26458399,0.26458399 0 0 0 0.312126,0.205155 0.26458399,0.26458399 0 0 0 0.205156,-0.312642 c -0.299676,-1.4351 -1.349286,-2.554899 -2.6845926,-2.98018 0.6447286,-0.403312 1.0753856,-1.121804 1.0753856,-1.937866 0,-1.256205 -1.019966,-2.283063 -2.2716938,-2.283063 z m 0,0.529166 c 0.9641892,0 1.7425268,0.78213 1.7425268,1.753897 0,0.971767 -0.7783376,1.752348 -1.7425268,1.752348 -0.964192,0 -1.7399476,-0.780581 -1.7399476,-1.752348 0,-0.971767 0.7757556,-1.753897 1.7399476,-1.753897 z m 0.00103,5.248775 a 0.26389271,0.26532803 1.6833018e-4 0 0 -0.2361618,0.14831 L 7.5959146,9.6041933 6.177912,9.8114153 A 0.26389271,0.26532803 1.6833018e-4 0 0 6.0316689,10.263585 l 1.0257763,1.006658 -0.241845,1.41955 a 0.26389271,0.26532803 1.6833018e-4 0 0 0.3824049,0.279569 l 1.26814,-0.670242 1.2686559,0.670242 a 0.26389271,0.26532803 1.6833018e-4 0 0 0.382405,-0.279569 L 9.8758795,11.270243 10.90114,10.265135 A 0.26389271,0.26532803 1.6833018e-4 0 0 10.75541,9.8119333 L 9.3374101,9.6047093 8.7033388,8.3127993 A 0.26389271,0.26532803 1.6833018e-4 0 0 8.466661,8.1650053 Z m 0,0.864545 0.4588881,0.934828 A 0.26389271,0.26532803 1.6833018e-4 0 0 9.1239848,10.10959 l 1.0262922,0.14986 -0.7425901,0.727604 A 0.26389271,0.26532803 1.6833018e-4 0 0 9.3317229,11.2227 l 0.1751832,1.027326 -0.9172548,-0.485759 a 0.26389271,0.26532803 1.6833018e-4 0 0 -0.2459805,5.19e-4 L 7.4258987,12.24951 7.6015979,11.222181 A 0.26389271,0.26532803 1.6833018e-4 0 0 7.5256334,10.987572 L 6.7835618,10.25945 7.8088222,10.10959 A 0.26389271,0.26532803 1.6833018e-4 0 0 8.0077756,9.9643783 Z m -5.1583386,0.681614 a 0.26532803,0.26389271 89.999915 0 0 -0.2361618,0.14831 L 2.4370557,11.150868 1.0195716,11.357574 A 0.26532803,0.26389271 89.999915 0 0 0.87332584,11.81026 l 1.02577896,1.006139 -0.241845,1.419553 a 0.26532803,0.26389271 89.999915 0 0 0.3824049,0.279569 l 1.26814,-0.669726 1.2686559,0.670242 A 0.26532803,0.26389271 89.999915 0 0 4.9588655,14.235952 L 4.7175364,12.816399 5.7427968,11.811294 A 0.26532803,0.26389271 89.999915 0 0 5.5970696,11.358092 L 4.179067,11.150868 3.5449983,9.8594743 a 0.26532803,0.26389271 89.999915 0 0 -0.2366777,-0.14831 z m 10.3166834,0 a 0.26532803,0.26389271 89.999915 0 0 -0.236162,0.14831 l -0.634587,1.2913937 -1.418,0.206706 a 0.26532803,0.26389271 89.999915 0 0 -0.14573,0.452686 l 1.025261,1.006139 -0.241845,1.419553 a 0.26532803,0.26389271 89.999915 0 0 0.382407,0.279569 l 1.268138,-0.669726 1.268658,0.670242 a 0.26532803,0.26389271 89.999915 0 0 0.382405,-0.280085 L 15.03422,12.816399 16.05948,11.811294 A 0.26532803,0.26389271 89.999915 0 0 15.913753,11.358092 L 14.49575,11.150868 13.861682,9.8594743 a 0.26532803,0.26389271 89.999915 0 0 -0.236678,-0.14831 z M 3.3083206,10.575711 3.767206,11.510537 a 0.26532803,0.26389271 89.999915 0 0 0.1984375,0.145211 l 1.0262949,0.14986 -0.7425901,0.728123 a 0.26532803,0.26389271 89.999915 0 0 -0.075965,0.235127 l 0.1751832,1.027327 -0.9172575,-0.48524 a 0.26532803,0.26389271 89.999915 0 0 -0.2459778,0 L 2.2675583,13.795669 2.4432575,12.76834 A 0.26532803,0.26389271 89.999915 0 0 2.367293,12.533731 L 1.6252187,11.806127 2.6504791,11.656264 a 0.26532803,0.26389271 89.999915 0 0 0.1989535,-0.145727 z m 10.3171994,0 0.458369,0.934826 a 0.26532803,0.26389271 89.999915 0 0 0.198438,0.145211 l 1.026295,0.14986 -0.74259,0.728123 a 0.26532803,0.26389271 89.999915 0 0 -0.07597,0.235127 l 0.175183,1.027327 -0.917257,-0.48524 a 0.26532803,0.26389271 89.999915 0 0 -0.24598,0 l -0.917774,0.484724 0.175702,-1.027329 a 0.26532803,0.26389271 89.999915 0 0 -0.07597,-0.234609 l -0.742074,-0.727604 1.025261,-0.149863 a 0.26532803,0.26389271 89.999915 0 0 0.198953,-0.145727 z" fill="#000000" fill-rule="evenodd" stroke-width="1" stroke-linecap="round" stroke-linejoin="round"/></g><text x="0" y="31.933334" fill="#000000" font-size="5px" font-weight="bold" font-family="'Helvetica Neue', Helvetica, Arial-Unicode, Arial, Sans-serif">Created by Alzam</text><text x="0" y="36.933334" fill="#000000" font-size="5px" font-weight="bold" font-family="'Helvetica Neue', Helvetica, Arial-Unicode, Arial, Sans-serif">from the Noun Project</text></svg>