<svg version="1.2" xmlns="http://www.w3.org/2000/svg" viewBox="0 0 1500 500" width="1500" height="500">
	<title>New Project</title>
	<style>
		.s0 { fill: #ffffff } 
	</style>
	<path id="Layer" class="s0" d="m30.6 355.9c-2.7 0-5.3-1.1-7.2-3.3-3.5-4-3.1-10.1 0.9-13.6l221.6-192.6c3.6-3.2 9-3.2 12.6 0l51.5 44.7v-37.4c0-5.4 4.3-9.7 9.6-9.7h57.8c5.3 0 9.6 4.4 9.6 9.7v104.5l93 80.8c4 3.5 4.5 9.6 1 13.7-3.5 4-9.6 4.4-13.6 0.9l-96.3-83.8c-2.1-1.8-3.4-4.4-3.4-7.2v-99.3h-38.5v49c0 3.7-2.2 7.1-5.6 8.7-3.4 1.6-7.5 1-10.3-1.5l-61.1-53.1-215.3 187.2c-1.8 1.6-4 2.3-6.3 2.3z"/>
	<g id="Folder 1">
		<path id="Layer" fill-rule="evenodd" class="s0" d="m669.4 215.1c16.2 0 30.5 10.5 30.5 36.2v40.9h-23v-40.2c0-9.6-4.1-16.9-14.8-16.9-8.9 0-14.9 7.9-16.6 14.9v42.2h-23.1v-40.2c0-9.6-5.9-16.9-14.7-16.9-9.5 0-15.2 6.4-16.6 14.9v42.2h-23.1v-75.9h23.1v13.9c0.3-3.5 7.7-15.1 22.6-15.1 10.9 0 21.4 5.9 27.7 16.5 1.8-4.1 10.5-16.5 28-16.5zm99.1 1.2h23v75.9h-23v-7.6c-1.1 2.6-7.9 9-19.6 9-17.3 0-37.3-12.4-37.3-39.5 0-26.1 20-39.1 37.3-39.1 11.7 0 18.5 6.7 19.6 8.3zm-16.2 57.1c9.5 0 17.2-6.6 17.2-19.3 0-12.3-7.7-18.8-17.2-18.8-9.9 0-18.4 6.7-18.4 18.8 0 12.5 8.5 19.3 18.4 19.3zm96.7-58.4c17.3 0 37.3 13 37.3 39.1 0 27.1-20 39.5-37.3 39.5-11.7 0-18.5-6.4-19.6-9v35.3h-23v-103.6h23v7c1.1-1.6 7.9-8.3 19.6-8.3zm-3.4 58.4c10 0 18.4-6.8 18.4-19.3 0-12.1-8.4-18.8-18.4-18.8-9.5 0-17.2 6.5-17.2 18.8 0 12.7 7.7 19.3 17.2 19.3zm53.3-84.4h23v103.2h-23zm75.5 25.9c17.3 0 41.3 13 36.5 47.3h-52.9c2.6 7.9 9.4 12 18.6 12 9.4 0 12.3-2.1 17.5-4.3l12.7 12.3c-6.7 6.5-15.7 11.4-31 11.4-18.9 0-41.3-13-41.3-39.1 0-26.6 22.7-39.6 39.9-39.6zm0 19.7c-6.5 0-13.2 3.8-16.2 11.4h32.3c-2.3-7.6-9.5-11.4-16.1-11.4z"/>
		<path id="Layer" fill-rule="evenodd" class="s0" d="m1082.4 208c18.9 0 40.6 14.1 40.6 42.5 0 29.5-21.7 43-40.6 43-12.7 0-20.1-7-21.2-9.9v8.3h-25.1v-112.2h25.1v37.3c1.1-1.7 8.5-9 21.2-9zm-3.6 63.4c10.8 0 20-7.3 20-20.9 0-13.2-9.2-20.5-20-20.5-10.3 0-18.7 7.1-18.7 20.5 0 13.8 8.4 20.9 18.7 20.9zm88 21.7c-15.4 0-31.1-10.3-31.1-36.4v-47.3h25.1v45.5c0 12.5 4.3 16.5 12.2 16.5 11.3 0 17.8-10.9 19.4-15.7v-46.3h25v82.5h-25v-14.3c-1.6 4-10 15.5-25.6 15.5zm66.8-113.4h25.1v21.1h-25.1zm0 29.7h25.1v82.5h-25.1zm41.2-29.7h25.1v112.1h-25.1zm100.6 0h25.1v112.2h-25.1v-8.3c-1.1 2.9-8.6 9.9-21.3 9.9-18.8 0-40.6-13.5-40.6-43 0-28.4 21.8-42.5 40.6-42.5 12.7 0 20.2 7.3 21.3 9zm-17.6 91.7c10.3 0 18.7-7.1 18.7-20.9 0-13.4-8.4-20.5-18.7-20.5-10.8 0-20 7.3-20 20.5 0 13.6 9.2 20.9 20 20.9zm98-36c-2.2-5.7-5.5-7.6-9.2-7.6-3.3 0-6.6 1.9-6.6 5.1 0 3 1.9 4.7 5.5 6l10.5 3.6c11.7 4.3 23.6 8.6 23.6 25.1 0 16.7-16.6 26.2-33.8 26.2-15.4 0-29.8-9.1-33.3-23.5l19.7-6.2c2 4.6 5.7 9.8 13.6 9.8 5.4 0 8.9-3.4 8.9-6.6 0-1.6-1.3-3.7-5.2-5.3l-9.7-3.4c-16.5-6.1-24.3-14.5-24.3-26.2 0-15.4 14.3-24.4 30-24.4 16 0 26.7 8.7 31.4 21.8z"/>
	</g>
</svg>