<svg id="visual" viewBox="0 0 900 600" width="900" height="600" xmlns="http://www.w3.org/2000/svg" xmlns:xlink="http://www.w3.org/1999/xlink" version="1.1"><rect x="0" y="0" width="900" height="600" fill="#595959"></rect><defs><linearGradient id="grad1_0" x1="33.3%" y1="0%" x2="100%" y2="100%"><stop offset="20%" stop-color="#000000" stop-opacity="1"></stop><stop offset="80%" stop-color="#000000" stop-opacity="1"></stop></linearGradient></defs><defs><linearGradient id="grad1_1" x1="33.3%" y1="0%" x2="100%" y2="100%"><stop offset="20%" stop-color="#000000" stop-opacity="1"></stop><stop offset="80%" stop-color="#1a1a1a" stop-opacity="1"></stop></linearGradient></defs><defs><linearGradient id="grad1_2" x1="33.3%" y1="0%" x2="100%" y2="100%"><stop offset="20%" stop-color="#2e2e2e" stop-opacity="1"></stop><stop offset="80%" stop-color="#1a1a1a" stop-opacity="1"></stop></linearGradient></defs><defs><linearGradient id="grad1_3" x1="33.3%" y1="0%" x2="100%" y2="100%"><stop offset="20%" stop-color="#2e2e2e" stop-opacity="1"></stop><stop offset="80%" stop-color="#434343" stop-opacity="1"></stop></linearGradient></defs><defs><linearGradient id="grad1_4" x1="33.3%" y1="0%" x2="100%" y2="100%"><stop offset="20%" stop-color="#595959" stop-opacity="1"></stop><stop offset="80%" stop-color="#434343" stop-opacity="1"></stop></linearGradient></defs><defs><linearGradient id="grad2_0" x1="0%" y1="0%" x2="66.7%" y2="100%"><stop offset="20%" stop-color="#000000" stop-opacity="1"></stop><stop offset="80%" stop-color="#000000" stop-opacity="1"></stop></linearGradient></defs><defs><linearGradient id="grad2_1" x1="0%" y1="0%" x2="66.7%" y2="100%"><stop offset="20%" stop-color="#1a1a1a" stop-opacity="1"></stop><stop offset="80%" stop-color="#000000" stop-opacity="1"></stop></linearGradient></defs><defs><linearGradient id="grad2_2" x1="0%" y1="0%" x2="66.7%" y2="100%"><stop offset="20%" stop-color="#1a1a1a" stop-opacity="1"></stop><stop offset="80%" stop-color="#2e2e2e" stop-opacity="1"></stop></linearGradient></defs><defs><linearGradient id="grad2_3" x1="0%" y1="0%" x2="66.7%" y2="100%"><stop offset="20%" stop-color="#434343" stop-opacity="1"></stop><stop offset="80%" stop-color="#2e2e2e" stop-opacity="1"></stop></linearGradient></defs><defs><linearGradient id="grad2_4" x1="0%" y1="0%" x2="66.7%" y2="100%"><stop offset="20%" stop-color="#434343" stop-opacity="1"></stop><stop offset="80%" stop-color="#595959" stop-opacity="1"></stop></linearGradient></defs><g transform="translate(900, 0)"><path d="M0 459.7C-71.5 433.1 -143.1 406.5 -214.5 371.5C-285.9 336.5 -357.3 293.2 -398.1 229.9C-439 166.5 -449.3 83.3 -459.7 0L0 0Z" fill="#4e4e4e"></path><path d="M0 367.8C-57.2 346.5 -114.5 325.2 -171.6 297.2C-228.7 269.2 -285.8 234.5 -318.5 183.9C-351.2 133.2 -359.5 66.6 -367.8 0L0 0Z" fill="#383838"></path><path d="M0 275.8C-42.9 259.9 -85.8 243.9 -128.7 222.9C-171.6 201.9 -214.4 175.9 -238.9 137.9C-263.4 99.9 -269.6 50 -275.8 0L0 0Z" fill="#242424"></path><path d="M0 183.9C-28.6 173.2 -57.2 162.6 -85.8 148.6C-114.4 134.6 -142.9 117.3 -159.2 91.9C-175.6 66.6 -179.7 33.3 -183.9 0L0 0Z" fill="#101010"></path><path d="M0 91.9C-14.3 86.6 -28.6 81.3 -42.9 74.3C-57.2 67.3 -71.5 58.6 -79.6 46C-87.8 33.3 -89.9 16.7 -91.9 0L0 0Z" fill="#000000"></path></g><g transform="translate(0, 600)"><path d="M0 -459.7C86.5 -451.2 173 -442.7 229.9 -398.1C286.7 -353.5 313.9 -272.9 347.3 -200.5C380.6 -128.1 420.2 -64.1 459.7 0L0 0Z" fill="#4e4e4e"></path><path d="M0 -367.8C69.2 -361 138.4 -354.2 183.9 -318.5C229.4 -282.8 251.1 -218.3 277.8 -160.4C304.5 -102.5 336.1 -51.3 367.8 0L0 0Z" fill="#383838"></path><path d="M0 -275.8C51.9 -270.7 103.8 -265.6 137.9 -238.9C172 -212.1 188.3 -163.7 208.4 -120.3C228.4 -76.9 252.1 -38.4 275.8 0L0 0Z" fill="#242424"></path><path d="M0 -183.9C34.6 -180.5 69.2 -177.1 91.9 -159.2C114.7 -141.4 125.6 -109.1 138.9 -80.2C152.3 -51.3 168.1 -25.6 183.9 0L0 0Z" fill="#101010"></path><path d="M0 -91.9C17.3 -90.2 34.6 -88.5 46 -79.6C57.3 -70.7 62.8 -54.6 69.5 -40.1C76.1 -25.6 84 -12.8 91.9 0L0 0Z" fill="#000000"></path></g></svg>